<svg xmlns="http://www.w3.org/2000/svg" width="782.107" height="600.311" viewBox="0 0 782.107 600.311">
  <path id="logo-bg" d="M986.962,132.846c-3.688-7.732-8.271-17.359-11.1-22.839-5.214-10.112-12.263-18.954-15.608-22-2.908-2.657-12.235-5.011-18.485-4.6A108.2,108.2,0,0,0,898.76,95.759c-30.6,16.217-45.112,24.381-51.894,28.373-6.127,3.612-17.988,11.072-27.519,17.076-6.424,4.034-11.814,7.428-13.8,8.613-6.083,3.607-51.857,33.079-68.752,45.416l-10.293,7.5c-10.391,7.556-23.9,17.375-32.861,24.061-11.777,8.783-35.422,26.889-45.667,35.246-7.092,5.779-61.595,51.441-64.05,53.81-1.35,1.3-4.824,4.3-8.847,7.764-4.408,3.8-9.349,8.058-12.294,10.785-5.673,5.235-33.058,31.82-34.9,33.645q-9.421,9.413-19.061,18.6c-4.44,4.231-14.061,14.36-20.427,21.057-2.983,3.148-5.219,5.5-5.816,6.083-5.326,5.2-35.4,38.308-46.793,51.153-5.657,6.366-15.8,20.32-25.6,33.815L397.92,515.633l6.457-16.942c3.581-9.4,6.6-16.809,9.2-23.186,3.089-7.588,5.528-13.586,7.615-19.7,3.665-10.79,20.63-63.576,23.121-75.358,1.889-8.89,3.784-20.592,3.768-26.7a56.924,56.924,0,0,0-2.433-15.726,118.947,118.947,0,0,0-10.027-22.465c-1.889-2.924-6.43-9.189-10.448-14.706-3.452-4.771-6.7-9.232-8.1-11.356-2.865-4.343-17.4-21.2-21.793-25.673-4.141-4.221-10.641-8.447-14.194-9.237-4.3-.955-14.216-3.164-24.99-1.916-10.864,1.254-33.031,6.361-47.482,11.686-14.482,5.347-24.541,10.091-44.851,21.163-20.224,11.035-34.771,21.292-40.213,26.574-5.571,5.395-6.206,7.716-3.586,13.09.528,1.083,12.561,25.165,12.822,25.672,2.872,5.608,10.021,14.322,11.11,15.432,2.983,3.042,9.659,3.159,12.273,1.628,3.394-1.99,6.7-4.136,10.005-6.27l2.268-1.462a447.056,447.056,0,0,1,71.862-36.948c11.276-4.456,24.707-7.85,31.7-9.477,6.387-1.473,13.7-2.738,20.923-1.35l2.263.443-.342,2.273c-.336,2.284-2.828,10.181-5.043,16.82-.5,1.484-1.062,3.244-1.723,5.3-2.268,7.033-5.689,17.668-11.292,32.866-2.711,7.364-5.074,13.447-7.327,19.242-3.687,9.5-7.166,18.468-11.425,31.142-1.729,5.155-4.018,11.318-6.44,17.844-2.818,7.588-5.726,15.427-8.2,22.834-1.888,5.662-5.128,14.824-8.42,24.162-3.495,9.893-7.059,19.984-9.151,26.281-16.756,50.374-24.637,79.456-24.963,81.542-.08.864-.224,1.809-.384,2.807a30.655,30.655,0,0,0-.454,8.106c.389,4.456,3.73,8.271,6.676,11.633l1.286,1.484c.181.218,2.726,3.581,6.478,8.538,9.584,12.673,32.023,42.358,34.227,44.658,8.095,8.442,15.075,13.287,19.146,13.287,10.918,0,19.381-7.844,25.534-14.675,1.873-2.081,18.127-22.956,27.929-35.63,1.073-1.387,2.06-2.849,3.042-4.306,1-1.484,2-2.962,3.079-4.376,3.981-5.208,37.156-48.5,39.936-52.007,3.815-4.829,7.855-9.589,11.761-14.194l12.332-14.68c6.313-7.572,12.631-15.144,19.093-22.583,5.176-5.95,10.656-11.777,15.95-17.412l4.467-4.765c7.4-7.914,45.587-47.263,51.724-53.287,6.035-5.929,33.949-31.83,41.478-38.746,5.256-4.819,44.061-37,49.265-41.233,2.251-1.836,4.482-3.7,6.707-5.566,3.191-2.668,6.382-5.336,9.638-7.924,7.684-6.089,51.686-39.061,57.45-43.127,7.007-4.936,31.819-22.012,37.39-25.742,3.245-2.161,12.513-8.639,22.263-15.453,10.7-7.481,21.975-15.358,26.532-18.41,8.836-5.923,18.857-12.22,25.534-16.035,2.011-1.158,19.85-11.355,23.852-13.4l10.079-5.155s-2.086,2.609-10.581,14.7c-13.09,18.639-22.924,33.01-32.124,50.6l-3.324,6.324c-2.546,4.792-6.927,14.461-11.563,24.69l-2.577,5.673c-3.736,8.2-7.786,18.276-12.076,28.943-2.033,5.043-4.12,10.24-6.265,15.464-13.618,37.119-17.668,52.717-21.942,69.227-4.877,18.8-8.335,48.117-8.474,49.349-1.627,13.863-3.682,41.457-1.046,56.969,1.809,10.689,7.865,23.639,12.913,30.907,3.453,4.968,16.931,22.326,25.854,33.821,6.483,8.351,8.97,11.564,9.333,12.129,2.518,3.874,17.257,20.39,21.883,22.807a54.157,54.157,0,0,0,13.128,5.08,2.625,2.625,0,0,0,2.689-1.51c1.718-4.85,2.412-9.237,1.766-11.185-.864-2.62-2.886-7.652-4.1-10.656l-.5-1.232c-2.241-5.6-6.094-15.4-6.675-18.042-.016,0-.144-.315-.337-.758-1.483-3.548-6.013-14.338-6.654-25.032-.662-39.53,10.3-71.132,16.868-90.006.811-2.348,1.558-4.488,2.2-6.414,4.675-14.05,9.942-27.663,15.518-42.087l3.857-9.984c7.087-18.437,21.665-51.057,27.845-64.13l4.525-9.632c5.31-11.281,10.587-22.487,13.064-27.508,3.207-6.5,10.693-20.976,16.168-31.537l2.641-5.112c1.4-2.705,3.778-7.209,6.58-12.529,7.347-13.922,17.412-33,20.886-40.475.527-1.131,1.093-2.252,1.653-3.372a60.684,60.684,0,0,0,2.589-5.571c2.839-7.295,4.862-12.9,6.575-18.18,2.417-7.465,4.221-13.671,5.661-19.5a58.06,58.06,0,0,0,1.547-10.379c.567-8.922.4-15.838-6.76-30.251C992.8,145.1,990.223,139.687,986.962,132.846Z" transform="translate(-218.482 -83.359)" fill="#fff"/>
</svg>
