<svg xmlns="http://www.w3.org/2000/svg" width="140" height="75.18" viewBox="0 0 140 75.18">
  <g id="Logo_Natuurlijk" data-name="Logo Natuurlijk" transform="translate(-91.477 -83.359)">
    <g id="Group_1" data-name="Group 1" transform="translate(134.015 83.359)">
      <path id="Path_1" data-name="Path 1" d="M266.716,86.465c-.231-.485-.519-1.09-.7-1.434a5.754,5.754,0,0,0-.98-1.381,2.032,2.032,0,0,0-1.16-.289,6.791,6.791,0,0,0-2.7.775c-1.921,1.018-2.832,1.53-3.257,1.781-.385.227-1.129.695-1.727,1.072-.4.253-.742.466-.866.541-.382.226-3.255,2.076-4.315,2.851l-.646.471c-.652.474-1.5,1.091-2.063,1.51-.739.551-2.223,1.688-2.866,2.212-.445.363-3.866,3.229-4.02,3.377-.085.082-.3.27-.555.487-.277.238-.587.506-.772.677-.356.329-2.075,2-2.191,2.112q-.591.591-1.2,1.167c-.279.266-.883.9-1.282,1.322-.187.2-.328.345-.365.382-.334.326-2.222,2.4-2.937,3.211-.355.4-.991,1.275-1.607,2.122l-.77,1.06.405-1.063c.225-.59.414-1.055.578-1.455.194-.476.347-.853.478-1.236.23-.677,1.295-3.99,1.451-4.73a10.106,10.106,0,0,0,.236-1.676,3.572,3.572,0,0,0-.153-.987,7.465,7.465,0,0,0-.629-1.41c-.119-.184-.4-.577-.656-.923-.217-.3-.42-.579-.508-.713-.18-.273-1.092-1.33-1.368-1.611a2.353,2.353,0,0,0-.891-.58,4.743,4.743,0,0,0-1.569-.12,16.117,16.117,0,0,0-2.98.734,18.891,18.891,0,0,0-2.815,1.328,13.711,13.711,0,0,0-2.524,1.668c-.35.339-.39.484-.225.822.033.068.788,1.58.8,1.611a6.2,6.2,0,0,0,.7.969.766.766,0,0,0,.77.1c.213-.125.42-.26.628-.394l.142-.092a28.061,28.061,0,0,1,4.511-2.319,15.262,15.262,0,0,1,1.99-.595,3.2,3.2,0,0,1,1.313-.085l.142.028-.021.143c-.021.143-.178.639-.316,1.056-.031.093-.067.2-.108.333-.142.441-.357,1.109-.709,2.063-.17.462-.319.844-.46,1.208-.231.6-.45,1.159-.717,1.955-.109.324-.252.71-.4,1.12-.177.476-.359.968-.515,1.433-.119.355-.322.93-.529,1.517-.219.621-.443,1.254-.574,1.65-1.052,3.162-1.546,4.987-1.567,5.118-.005.054-.014.114-.024.176a1.923,1.923,0,0,0-.028.509,1.4,1.4,0,0,0,.419.73l.081.093c.011.014.171.225.407.536.6.8,2.01,2.659,2.148,2.8.508.53.946.834,1.2.834a2.284,2.284,0,0,0,1.6-.921c.118-.131,1.138-1.441,1.753-2.236.067-.087.129-.179.191-.27s.125-.186.193-.275c.25-.327,2.332-3.044,2.507-3.264.239-.3.493-.6.738-.891l.774-.921c.4-.475.793-.951,1.2-1.417.325-.373.669-.739,1-1.093l.28-.3c.464-.5,2.861-2.967,3.247-3.345s2.131-2,2.6-2.432c.33-.3,2.766-2.322,3.092-2.588.141-.115.281-.232.421-.349.2-.167.4-.335.6-.5.482-.382,3.244-2.452,3.606-2.707.44-.31,2-1.382,2.347-1.616.2-.136.785-.542,1.4-.97.672-.47,1.379-.964,1.665-1.156.555-.372,1.184-.767,1.6-1.006.126-.073,1.246-.713,1.5-.841l.633-.324s-.131.164-.664.923a27.618,27.618,0,0,0-2.016,3.176l-.209.4c-.16.3-.435.908-.726,1.55l-.162.356c-.234.515-.489,1.147-.758,1.817-.128.317-.259.643-.393.971a38.981,38.981,0,0,0-1.377,4.345,28.672,28.672,0,0,0-.532,3.1,15.865,15.865,0,0,0-.066,3.576,5.49,5.49,0,0,0,.811,1.94c.217.312,1.063,1.4,1.623,2.123.407.524.563.726.586.761a8.294,8.294,0,0,0,1.374,1.432,3.4,3.4,0,0,0,.824.319.165.165,0,0,0,.169-.095,1.384,1.384,0,0,0,.111-.7c-.054-.164-.181-.48-.257-.669l-.031-.077c-.141-.351-.383-.966-.419-1.132,0,0-.009-.02-.021-.048a5.132,5.132,0,0,1-.418-1.571,15.831,15.831,0,0,1,1.059-5.649c.051-.147.1-.282.138-.4.293-.882.624-1.736.974-2.642l.242-.627c.445-1.157,1.36-3.2,1.748-4.025l.284-.6c.333-.708.665-1.411.82-1.727.2-.408.671-1.317,1.015-1.979l.166-.321c.088-.17.237-.452.413-.786.461-.874,1.093-2.071,1.311-2.54.033-.071.069-.141.1-.212a3.811,3.811,0,0,0,.162-.35c.178-.458.305-.81.413-1.141.152-.469.265-.858.355-1.224a3.646,3.646,0,0,0,.1-.651,3.158,3.158,0,0,0-.424-1.9C267.083,87.234,266.921,86.895,266.716,86.465Z" transform="translate(-218.481 -83.359)" fill="#1a1818"/>
    </g>
    <g id="Group_2" data-name="Group 2" transform="translate(109.627 151.687)">
      <path id="Path_2" data-name="Path 2" d="M145.666,288.19h2.752a2.375,2.375,0,0,1,1.69.572,1.437,1.437,0,0,1,.416,1.035v.018a1.561,1.561,0,0,1-1.025,1.5c.767.231,1.385.674,1.385,1.561v.018c0,1.108-.933,1.764-2.346,1.764h-2.872Zm4.119,1.708c0-.637-.508-1.053-1.432-1.053h-1.967v2.226H148.3c.877,0,1.487-.4,1.487-1.154Zm-1.357,1.819h-2.041V294h2.17c.979,0,1.588-.434,1.588-1.154v-.018C150.145,292.124,149.554,291.718,148.428,291.718Z" transform="translate(-145.666 -287.913)" fill="#1a1818"/>
      <path id="Path_3" data-name="Path 3" d="M176.432,287.363h.711V294.1h-.711Z" transform="translate(-166.127 -287.363)" fill="#1a1818"/>
      <path id="Path_4" data-name="Path 4" d="M193.634,295.444v-.018a2.489,2.489,0,0,1,4.977-.019v.019a2.479,2.479,0,0,1-2.5,2.493A2.446,2.446,0,0,1,193.634,295.444Zm4.248,0v-.018a1.807,1.807,0,0,0-1.773-1.866,1.762,1.762,0,0,0-1.745,1.847v.019a1.791,1.791,0,0,0,1.764,1.856A1.762,1.762,0,0,0,197.882,295.444Z" transform="translate(-177.568 -291.067)" fill="#1a1818"/>
      <path id="Path_5" data-name="Path 5" d="M222.442,295.435v-.019a2.355,2.355,0,0,1,2.29-2.484,2.273,2.273,0,0,1,2.226,2.521,1.823,1.823,0,0,1-.009.231h-3.786a1.667,1.667,0,0,0,1.681,1.616,1.976,1.976,0,0,0,1.505-.674l.443.4a2.463,2.463,0,0,1-1.967.9A2.373,2.373,0,0,1,222.442,295.435Zm3.8-.277a1.573,1.573,0,0,0-1.524-1.626,1.646,1.646,0,0,0-1.551,1.626Z" transform="translate(-196.727 -291.067)" fill="#1a1818"/>
      <path id="Path_6" data-name="Path 6" d="M250.671,293.034h.711v.8a1.744,1.744,0,0,1,1.542-.905,1.623,1.623,0,0,1,1.533.951,1.9,1.9,0,0,1,1.681-.951,1.716,1.716,0,0,1,1.773,1.921v2.955H257.2v-2.789c0-.923-.462-1.441-1.238-1.441a1.33,1.33,0,0,0-1.311,1.477v2.752h-.711V295c0-.9-.471-1.422-1.228-1.422a1.384,1.384,0,0,0-1.33,1.505v2.724h-.711Z" transform="translate(-215.501 -291.067)" fill="#1a1818"/>
      <path id="Path_7" data-name="Path 7" d="M288.626,293.19v.914h-.711v-6.742h.711v2.927a2.148,2.148,0,0,1,1.829-1.062,2.329,2.329,0,0,1,2.281,2.475v.019a2.337,2.337,0,0,1-2.281,2.484A2.155,2.155,0,0,1,288.626,293.19Zm3.38-1.459v-.019a1.719,1.719,0,0,0-1.681-1.847A1.78,1.78,0,0,0,288.6,291.7v.019a1.777,1.777,0,0,0,1.727,1.846A1.685,1.685,0,0,0,292.006,291.731Z" transform="translate(-240.271 -287.363)" fill="#1a1818"/>
      <path id="Path_8" data-name="Path 8" d="M317.3,287.776h.813v.785H317.3Zm.046,1.829h.711v4.775h-.711Z" transform="translate(-259.816 -287.638)" fill="#1a1818"/>
      <path id="Path_9" data-name="Path 9" d="M335.524,293.034h.711v.831a1.809,1.809,0,0,1,1.635-.933,1.744,1.744,0,0,1,1.828,1.912v2.964h-.711v-2.789a1.273,1.273,0,0,0-1.321-1.441,1.4,1.4,0,0,0-1.432,1.5v2.733h-.711Z" transform="translate(-271.934 -291.067)" fill="#1a1818"/>
      <path id="Path_10" data-name="Path 10" d="M362.706,291.731v-.019a2.343,2.343,0,0,1,2.281-2.484,2.153,2.153,0,0,1,1.828,1.016v-2.881h.711V294.1h-.711v-.96a2.146,2.146,0,0,1-1.828,1.062A2.329,2.329,0,0,1,362.706,291.731Zm4.137-.009V291.7a1.774,1.774,0,0,0-1.727-1.838,1.685,1.685,0,0,0-1.681,1.838v.019a1.724,1.724,0,0,0,1.681,1.846A1.783,1.783,0,0,0,366.843,291.722Z" transform="translate(-290.012 -287.363)" fill="#1a1818"/>
      <path id="Path_11" data-name="Path 11" d="M391.983,295.435v-.019a2.355,2.355,0,0,1,2.29-2.484,2.273,2.273,0,0,1,2.225,2.521,1.894,1.894,0,0,1-.009.231H392.7a1.668,1.668,0,0,0,1.681,1.616,1.976,1.976,0,0,0,1.505-.674l.443.4a2.464,2.464,0,0,1-1.967.9A2.373,2.373,0,0,1,391.983,295.435Zm3.8-.277a1.573,1.573,0,0,0-1.524-1.626,1.646,1.646,0,0,0-1.551,1.626Z" transform="translate(-309.483 -291.067)" fill="#1a1818"/>
      <path id="Path_12" data-name="Path 12" d="M420.212,293.068h.711v1.247a2.045,2.045,0,0,1,1.949-1.33v.766h-.056a1.925,1.925,0,0,0-1.893,2.189v1.9h-.711Z" transform="translate(-328.257 -291.101)" fill="#1a1818"/>
      <path id="Path_13" data-name="Path 13" d="M441.191,297.236l.36-.508a2.793,2.793,0,0,0,1.653.609c.573,0,.988-.3.988-.757v-.019c0-.48-.563-.665-1.191-.84-.748-.212-1.579-.471-1.579-1.348v-.019a1.445,1.445,0,0,1,1.625-1.367,3.265,3.265,0,0,1,1.718.526l-.323.536a2.7,2.7,0,0,0-1.413-.462c-.564,0-.924.3-.924.693v.018c0,.452.591.628,1.228.822.739.221,1.533.508,1.533,1.367v.018a1.5,1.5,0,0,1-1.7,1.431A3.283,3.283,0,0,1,441.191,297.236Z" transform="translate(-342.209 -291.104)" fill="#1a1818"/>
    </g>
    <g id="Group_3" data-name="Group 3" transform="translate(91.477 127.766)">
      <path id="Path_14" data-name="Path 14" d="M108.074,218.382c-1.33.071-1.9.38-1.995,1.4a33.856,33.856,0,0,0-.142,4.013v9.569H105.2L95.086,220.922h-.047v5.96a39.89,39.89,0,0,0,.142,4.013c.119,1.211.665,1.5,2.28,1.591v.665H91.833v-.665c1.353-.071,1.971-.38,2.09-1.543.071-.736.142-1.9.142-4.06v-5.224c0-1.734-.048-1.852-.475-2.4a2.6,2.6,0,0,0-2.113-.879v-.665h3.49l9.925,11.919h.071V223.8a29.677,29.677,0,0,0-.166-3.941c-.119-1.092-.665-1.4-2.327-1.472v-.665h5.6Z" transform="translate(-91.477 -217.123)" fill="#1a1818"/>
      <path id="Path_15" data-name="Path 15" d="M151.146,232.443v-.665c1.5-.19,1.71-.38,1.4-1.306s-.783-2.208-1.306-3.657h-5.058c-.38,1.068-.736,2.066-1.045,3.063-.5,1.5-.309,1.733,1.5,1.9v.665h-5.176v-.665c1.52-.213,1.852-.356,2.659-2.469l4.915-12.442.736-.214c1.472,4.06,3.063,8.6,4.583,12.727.736,2.042,1.068,2.256,2.612,2.4v.665Zm-2.327-12.7h-.048c-.76,2.018-1.5,4.108-2.232,6.055h4.369Z" transform="translate(-124.718 -216.416)" fill="#1a1818"/>
      <path id="Path_16" data-name="Path 16" d="M199.084,220.218a5.843,5.843,0,0,0-.736-2.113c-.4-.57-.784-.76-2.588-.76H194.1v11.706c0,1.876.19,2.113,2.422,2.255v.665h-6.791v-.665c2.161-.142,2.351-.38,2.351-2.255V217.345h-1.472c-1.97,0-2.445.214-2.754.736a7.7,7.7,0,0,0-.76,2.137H186.4c.119-1.425.237-2.968.285-4.274h.475c.333.546.641.594,1.306.594h9.379a1.2,1.2,0,0,0,1.187-.594h.5c.024,1.093.119,2.826.261,4.2Z" transform="translate(-154.61 -215.944)" fill="#1a1818"/>
      <path id="Path_17" data-name="Path 17" d="M246.718,218.382c-1.424.095-1.971.4-2.066,1.4a35,35,0,0,0-.143,3.846v1.947c0,2.8-.427,4.82-1.781,6.268a5.927,5.927,0,0,1-4.274,1.639,6.149,6.149,0,0,1-3.8-1.14c-1.424-1.092-2.09-2.849-2.09-5.651V220.78c0-2.137-.213-2.232-2.066-2.4v-.665h6.126v.665c-1.852.119-2.042.261-2.042,2.4v5.39c0,3.823,1.52,6.031,4.464,6.031,3.419,0,4.488-2.873,4.488-6.791v-1.781a30.364,30.364,0,0,0-.166-3.918c-.119-.926-.618-1.211-2.3-1.33v-.665h5.651Z" transform="translate(-183.937 -217.123)" fill="#1a1818"/>
      <path id="Path_18" data-name="Path 18" d="M298.9,218.382c-1.425.095-1.971.4-2.066,1.4a35.121,35.121,0,0,0-.142,3.846v1.947c0,2.8-.427,4.82-1.781,6.268a5.926,5.926,0,0,1-4.274,1.639,6.149,6.149,0,0,1-3.8-1.14c-1.425-1.092-2.09-2.849-2.09-5.651V220.78c0-2.137-.214-2.232-2.066-2.4v-.665h6.126v.665c-1.852.119-2.042.261-2.042,2.4v5.39c0,3.823,1.52,6.031,4.464,6.031,3.419,0,4.488-2.873,4.488-6.791v-1.781a30.284,30.284,0,0,0-.166-3.918c-.119-.926-.617-1.211-2.3-1.33v-.665H298.9Z" transform="translate(-218.639 -217.123)" fill="#1a1818"/>
      <path id="Path_19" data-name="Path 19" d="M349.2,233.341c-.285,0-.57,0-.831-.024a4.3,4.3,0,0,1-3.847-2.161c-.831-1.164-1.686-2.636-2.4-3.8-.4-.665-.807-.95-2.018-.95h-.76v3.775c0,2.018.214,2.161,2.089,2.3v.665h-6.221v-.665c1.947-.142,2.137-.285,2.137-2.3v-9.545c0-2.018-.19-2.089-2.042-2.255v-.665H341.2a6.565,6.565,0,0,1,3.776.807,3.518,3.518,0,0,1,1.591,3.111c0,2.042-1.282,3.3-3.015,4.084.4.76,1.4,2.351,2.113,3.419a18.358,18.358,0,0,0,1.923,2.469,3.282,3.282,0,0,0,1.71,1.116Zm-8.714-7.693a3.764,3.764,0,0,0,2.565-.688,3.408,3.408,0,0,0,1.306-2.944,3.209,3.209,0,0,0-3.467-3.514,2.332,2.332,0,0,0-1.282.237c-.19.119-.261.38-.261,1.045v5.864Z" transform="translate(-253.576 -217.123)" fill="#1a1818"/>
      <path id="Path_20" data-name="Path 20" d="M390.706,229.423c-.143.736-.641,2.992-.855,3.728H379.1v-.665c1.995-.142,2.184-.308,2.184-2.327v-9.5c0-2.019-.142-2.137-2.089-2.28v-.665h6.2v.665c-1.876.142-2.09.237-2.09,2.28v9.379c0,1.282.119,1.757.546,1.995a5.293,5.293,0,0,0,2.279.308c1.306,0,2.113-.119,2.66-.736a6.511,6.511,0,0,0,1.211-2.327Z" transform="translate(-282.762 -217.123)" fill="#1a1818"/>
      <path id="Path_21" data-name="Path 21" d="M417.379,233.151v-.665c1.947-.142,2.137-.285,2.137-2.3v-9.5c0-2.018-.19-2.161-2.137-2.3v-.665h6.292v.665c-1.947.142-2.137.285-2.137,2.3v9.5c0,2.042.19,2.161,2.137,2.3v.665Z" transform="translate(-308.223 -217.123)" fill="#1a1818"/>
      <path id="Path_22" data-name="Path 22" d="M447.326,218.382c-1.828.142-2.018.308-2.018,2.3v8.857c0,3.063-.475,4.7-2.042,6.15a6.185,6.185,0,0,1-2.208,1.377l-.285-.689a4.067,4.067,0,0,0,2.279-3.087,28.579,28.579,0,0,0,.238-4.535v-8.073c0-1.995-.19-2.161-2.113-2.3v-.665h6.15Z" transform="translate(-323.781 -217.123)" fill="#1a1818"/>
      <path id="Path_23" data-name="Path 23" d="M476.32,233.151c-1.852-2.066-3.775-4.393-5.889-6.91-.57-.641-.878-.712-1.282-.641v4.511c0,2.066.214,2.232,2.184,2.374v.665H465.16v-.665c1.8-.142,1.995-.308,1.995-2.374V220.8c0-2.161-.19-2.279-2.066-2.422v-.665h6.126v.665c-1.828.142-2.066.308-2.066,2.422v4.156a3.782,3.782,0,0,0,1.662-1.069,54.446,54.446,0,0,0,3.966-4.226c.712-.855.689-1.093-.38-1.211l-.546-.071v-.665h5.7v.665a5.134,5.134,0,0,0-3.846,1.781c-.926.831-2.612,2.541-4.2,4.156,1.781,2.256,4.392,5.176,5.58,6.459,1.259,1.353,1.734,1.567,2.873,1.709v.665Z" transform="translate(-339.953 -217.123)" fill="#1a1818"/>
    </g>
  </g>
</svg>
